<svg xmlns="http://www.w3.org/2000/svg" viewBox="0 0 41 49.73"><defs><style>.cls-1{fill:#fff;}</style></defs><title>书</title><g id="图层_4" data-name="图层 4"><path class="cls-1" d="M174.42,83.82l-4-2.7a1.07,1.07,0,0,1-.45-.87V48a1,1,0,0,1,1.58-.86l4,2.71a1,1,0,0,1,.45.86V83A1,1,0,0,1,174.42,83.82Z" transform="translate(-159 -34.27)"/><path class="cls-1" d="M197.79,47.29l-19.08,2.49A2,2,0,0,0,177,51.72V81.77a2,2,0,0,0,2.21,1.94l19.08-2.49A2,2,0,0,0,200,79.28V49.23A2,2,0,0,0,197.79,47.29ZM196,61l-15,2V55l15-2Z" transform="translate(-159 -34.27)"/><path class="cls-1" d="M173.72,46.66,175.88,48a1.31,1.31,0,0,0,.85.17l19.43-2.82a.3.3,0,0,0,.12-.56l-2.16-1.32a1.26,1.26,0,0,0-.85-.18L173.84,46.1A.3.3,0,0,0,173.72,46.66Z" transform="translate(-159 -34.27)"/><path class="cls-1" d="M163.42,74.82l-4-2.7a1.07,1.07,0,0,1-.45-.87V39a1,1,0,0,1,1.58-.86l4,2.71a1,1,0,0,1,.45.86V74A1,1,0,0,1,163.42,74.82Z" transform="translate(-159 -34.27)"/><path class="cls-1" d="M169,46.72a2,2,0,0,1,1.71-1.94L189,42.39V40.23a2,2,0,0,0-2.21-1.94l-19.08,2.49A2,2,0,0,0,166,42.72V72.77a2,2,0,0,0,2.21,1.94l.79-.1Z" transform="translate(-159 -34.27)"/><path class="cls-1" d="M162.72,37.66,164.88,39a1.31,1.31,0,0,0,.85.17l19.43-2.82a.3.3,0,0,0,.12-.56l-2.16-1.32a1.26,1.26,0,0,0-.85-.18L162.84,37.1A.3.3,0,0,0,162.72,37.66Z" transform="translate(-159 -34.27)"/></g></svg>