<svg id="图层_1" data-name="图层 1" xmlns="http://www.w3.org/2000/svg" viewBox="0 0 111.94 68.22"><defs><style>.cls-1{fill:#94070a;;}</style></defs><title>未标题-1</title><path class="cls-1" d="M111.55,15.78,60.77,1.56a12.91,12.91,0,0,0-7.54,0L2.45,15.78a2,2,0,0,0,0,3.85l5.06,1.42V50.64a5.57,5.57,0,0,0,.61,10.49l-3,6.12a1.36,1.36,0,0,0,1.21,2H13a1.37,1.37,0,0,0,1.22-2l-3-6.12a5.57,5.57,0,0,0,.61-10.49V22.24L53.23,33.85a12.91,12.91,0,0,0,7.54,0l50.78-14.22A2,2,0,0,0,111.55,15.78Z" transform="translate(-1.03 -1)"/><path class="cls-1" d="M91.15,27.92l-30.38,8.5a12.91,12.91,0,0,1-7.54,0L23.56,28.11A1.91,1.91,0,0,0,21.14,30V45.57c0,2.84,16.21,10.28,36.21,10.28s36.22-7.44,36.22-10.28V29.77A1.91,1.91,0,0,0,91.15,27.92Z" transform="translate(-1.03 -1)"/></svg>